<svg width="20" height="20" viewBox="0 0 20 20" fill="none" xmlns="http://www.w3.org/2000/svg">
<g clip-path="url(#clip0_2546_6567)">
<mask id="mask0_2546_6567" style="mask-type:luminance" maskUnits="userSpaceOnUse" x="0" y="0" width="20" height="20">
<path d="M20 0H0V20H20V0Z" fill="white"/>
</mask>
<g mask="url(#mask0_2546_6567)">
<path d="M10.0001 17.7076C9.84175 17.7076 9.68342 17.6493 9.55842 17.5243L4.5001 12.466C4.25843 12.2243 4.25843 11.8243 4.5001 11.5826C4.74176 11.341 5.14176 11.341 5.38343 11.5826L10.0001 16.1993L14.6167 11.5826C14.8584 11.341 15.2584 11.341 15.5001 11.5826C15.7417 11.8243 15.7417 12.2243 15.5001 12.466L10.4417 17.5243C10.3167 17.6493 10.1584 17.7076 10.0001 17.7076Z" fill="#F1F1F1"/>
<path d="M10 17.567C9.65833 17.567 9.375 17.2837 9.375 16.942V2.91699C9.375 2.57533 9.65833 2.29199 10 2.29199C10.3417 2.29199 10.625 2.57533 10.625 2.91699V16.942C10.625 17.2837 10.3417 17.567 10 17.567Z" fill="#F1F1F1"/>
</g>
</g>
<defs>
<clipPath id="clip0_2546_6567">
<rect width="20" height="20" fill="white"/>
</clipPath>
</defs>
</svg>
