<svg width="20" height="20" viewBox="0 0 20 20" fill="none" xmlns="http://www.w3.org/2000/svg">
<path d="M7.5 15.0003C7.04167 15.0003 6.64944 14.8373 6.32333 14.5112C5.99722 14.185 5.83389 13.7925 5.83333 13.3337V3.33366C5.83333 2.87533 5.99667 2.4831 6.32333 2.15699C6.65 1.83088 7.04222 1.66755 7.5 1.66699H15C15.4583 1.66699 15.8508 1.83033 16.1775 2.15699C16.5042 2.48366 16.6672 2.87588 16.6667 3.33366V13.3337C16.6667 13.792 16.5036 14.1845 16.1775 14.5112C15.8514 14.8378 15.4589 15.0009 15 15.0003H7.5ZM7.5 13.3337H15V3.33366H7.5V13.3337ZM4.16667 18.3337C3.70833 18.3337 3.31611 18.1706 2.99 17.8445C2.66389 17.5184 2.50056 17.1259 2.5 16.667V5.00033H4.16667V16.667H13.3333V18.3337H4.16667Z" fill="#F1F1F1"/>
</svg>
