<svg width="20" height="20" viewBox="0 0 20 20" fill="none" xmlns="http://www.w3.org/2000/svg">
<g clip-path="url(#clip0_2546_6546)">
<path d="M14.6998 0.0751953C14.25 0.0902245 13.8043 0.165908 13.3748 0.300195C12.6998 0.550195 12.0498 0.925195 11.4998 1.4752C11.3415 1.57551 11.2079 1.71012 11.1087 1.86907C11.0094 2.02801 10.9472 2.20723 10.9266 2.39346C10.906 2.57969 10.9275 2.76817 10.9896 2.94496C11.0517 3.12176 11.1527 3.28234 11.2852 3.41482C11.4176 3.54731 11.5782 3.64832 11.755 3.71038C11.9318 3.77244 12.1203 3.79396 12.3065 3.77336C12.4928 3.75275 12.672 3.69054 12.8309 3.59133C12.9899 3.49212 13.1245 3.35844 13.2248 3.2002C13.4998 2.92519 13.8248 2.77519 14.1748 2.65019C15.0498 2.35019 16.1248 2.4752 16.8248 3.2002C17.7998 4.17519 17.7998 5.80019 16.8248 6.80019L13.0748 10.5502C11.9748 11.6502 11.0748 11.7502 10.4248 11.7252C9.77479 11.7002 9.39978 11.4002 9.39978 11.4002C9.25533 11.3181 9.09612 11.2653 8.93126 11.2447C8.76639 11.2242 8.59909 11.2363 8.43891 11.2804C8.27873 11.3245 8.1288 11.3998 7.99769 11.5018C7.86658 11.6039 7.75686 11.7307 7.67478 11.8752C7.59271 12.0196 7.53989 12.1789 7.51934 12.3437C7.49879 12.5086 7.51092 12.6759 7.55503 12.8361C7.59913 12.9963 7.67436 13.1462 7.77641 13.2773C7.87846 13.4084 8.00533 13.5181 8.14978 13.6002C8.14978 13.6002 8.99978 14.1502 10.2498 14.2252C11.4998 14.3002 13.2498 13.8252 14.7748 12.2752L18.5248 8.5252C19.1567 7.89856 19.608 7.11316 19.8312 6.25165C20.0544 5.39013 20.0412 4.48439 19.793 3.62975C19.5448 2.77511 19.0708 2.0032 18.4208 1.39526C17.7709 0.787315 16.9691 0.36584 16.0998 0.175195C15.6498 0.0751953 15.1498 0.0751953 14.6998 0.100195V0.0751953ZM9.69978 5.85019C8.44978 5.80019 6.72478 6.22519 5.24978 7.72519L1.49978 11.4752C1.03643 11.9353 0.668689 12.4825 0.417741 13.0854C0.166793 13.6882 0.0375977 14.3347 0.0375977 14.9877C0.0375977 15.6407 0.166793 16.2872 0.417741 16.89C0.668689 17.4929 1.03643 18.0401 1.49978 18.5002C2.89978 19.9002 4.89978 20.3002 6.64978 19.6752C7.32478 19.4252 7.97478 19.0502 8.52478 18.5002C8.68303 18.3999 8.81671 18.2653 8.91592 18.1063C9.01513 17.9474 9.07734 17.7682 9.09795 17.5819C9.11855 17.3957 9.09703 17.2072 9.03497 17.0304C8.97291 16.8536 8.8719 16.6931 8.73941 16.5606C8.60692 16.4281 8.44635 16.3271 8.26955 16.265C8.09276 16.2029 7.90428 16.1814 7.71805 16.202C7.53182 16.2226 7.3526 16.2848 7.19366 16.3841C7.03471 16.4833 6.9001 16.6169 6.79978 16.7752C6.52478 17.0502 6.19978 17.2002 5.84978 17.3252C4.97478 17.6252 3.89978 17.5002 3.19978 16.7752C2.22478 15.8002 2.22478 14.1752 3.19978 13.1752L6.94978 9.42519C7.94978 8.42519 8.82478 8.30019 9.52478 8.32519C10.2248 8.35019 10.6998 8.55019 10.6998 8.55019C10.8463 8.66005 11.0151 8.73639 11.1943 8.77381C11.3735 8.81123 11.5588 8.80882 11.737 8.76676C11.9152 8.72469 12.0819 8.64399 12.2255 8.53037C12.3691 8.41675 12.4859 8.27297 12.5678 8.10921C12.6497 7.94545 12.6946 7.7657 12.6994 7.58267C12.7041 7.39964 12.6686 7.2178 12.5953 7.05001C12.5221 6.88222 12.4129 6.73257 12.2754 6.61164C12.1379 6.49071 11.9756 6.40146 11.7998 6.35019C11.7998 6.35019 10.9498 5.85019 9.69978 5.80019V5.85019Z" fill="#F1F1F1"/>
</g>
<defs>
<clipPath id="clip0_2546_6546">
<rect width="20" height="20" fill="white"/>
</clipPath>
</defs>
</svg>
