<svg width="18" height="18" viewBox="0 0 18 18" fill="none" xmlns="http://www.w3.org/2000/svg">
<g clip-path="url(#clip0_2546_6684)">
<mask id="mask0_2546_6684" style="mask-type:luminance" maskUnits="userSpaceOnUse" x="0" y="0" width="18" height="18">
<path d="M18 0H0V18H18V0Z" fill="white"/>
</mask>
<g mask="url(#mask0_2546_6684)">
<path d="M8.99983 15.9364C8.85733 15.9364 8.71483 15.8839 8.60233 15.7714L4.04984 11.2189C3.83234 11.0014 3.83234 10.6414 4.04984 10.4239C4.26734 10.2064 4.62734 10.2064 4.84484 10.4239L8.99983 14.5789L13.1548 10.4239C13.3723 10.2064 13.7323 10.2064 13.9498 10.4239C14.1673 10.6414 14.1673 11.0014 13.9498 11.2189L9.39733 15.7714C9.28483 15.8839 9.14233 15.9364 8.99983 15.9364Z" fill="#F1F1F1"/>
<path d="M9 15.81C8.6925 15.81 8.4375 15.555 8.4375 15.2475V2.625C8.4375 2.3175 8.6925 2.0625 9 2.0625C9.3075 2.0625 9.5625 2.3175 9.5625 2.625V15.2475C9.5625 15.555 9.3075 15.81 9 15.81Z" fill="#F1F1F1"/>
</g>
</g>
<defs>
<clipPath id="clip0_2546_6684">
<rect width="18" height="18" fill="white"/>
</clipPath>
</defs>
</svg>
