<svg width="18" height="18" viewBox="0 0 18 18" fill="none" xmlns="http://www.w3.org/2000/svg">
<g clip-path="url(#clip0_2546_6663)">
<path d="M13.2301 0.0673828C12.8253 0.0809091 12.4242 0.149024 12.0376 0.269883C11.4301 0.494883 10.8451 0.832383 10.3501 1.32738C10.2077 1.41767 10.0874 1.53882 9.99813 1.68187C9.90884 1.82492 9.85285 1.98621 9.8343 2.15382C9.81576 2.32143 9.83512 2.49106 9.89098 2.65018C9.94683 2.80929 10.0377 2.95381 10.157 3.07305C10.2762 3.19229 10.4207 3.2832 10.5799 3.33905C10.739 3.39491 10.9086 3.41427 11.0762 3.39573C11.2438 3.37718 11.4051 3.32119 11.5482 3.2319C11.6912 3.14261 11.8124 3.02231 11.9026 2.87988C12.1501 2.63238 12.4426 2.49738 12.7576 2.38488C13.5451 2.11488 14.5126 2.22738 15.1426 2.87988C16.0201 3.75738 16.0201 5.21988 15.1426 6.11988L11.7676 9.49488C10.7776 10.4849 9.96765 10.5749 9.38265 10.5524C8.79765 10.5299 8.46015 10.2599 8.46015 10.2599C8.33014 10.186 8.18685 10.1385 8.03847 10.12C7.89009 10.1015 7.73952 10.1124 7.59536 10.1521C7.4512 10.1918 7.31626 10.2595 7.19827 10.3513C7.08027 10.4432 6.98152 10.5574 6.90765 10.6874C6.83378 10.8174 6.78624 10.9607 6.76775 11.1091C6.74925 11.2574 6.76017 11.408 6.79986 11.5522C6.83956 11.6963 6.90726 11.8313 6.99911 11.9493C7.09095 12.0673 7.20514 12.166 7.33515 12.2399C7.33515 12.2399 8.10015 12.7349 9.22515 12.8024C10.3501 12.8699 11.9251 12.4424 13.2976 11.0474L16.6726 7.67238C17.2414 7.10842 17.6476 6.40155 17.8484 5.62619C18.0493 4.85083 18.0374 4.03566 17.814 3.26648C17.5907 2.49731 17.164 1.80258 16.5791 1.25544C15.9941 0.708291 15.2725 0.328963 14.4901 0.157383C14.0851 0.0673828 13.6351 0.0673828 13.2301 0.0898828V0.0673828ZM8.73015 5.26488C7.60515 5.21988 6.05265 5.60238 4.72515 6.95238L1.35015 10.3274C0.93313 10.7415 0.602162 11.234 0.376309 11.7765C0.150455 12.3191 0.0341797 12.9009 0.0341797 13.4886C0.0341797 14.0763 0.150455 14.6582 0.376309 15.2007C0.602162 15.7433 0.93313 16.2358 1.35015 16.6499C2.61015 17.9099 4.41015 18.2699 5.98515 17.7074C6.59265 17.4824 7.17765 17.1449 7.67265 16.6499C7.81507 16.5596 7.93538 16.4384 8.02467 16.2954C8.11396 16.1523 8.16995 15.991 8.18849 15.8234C8.20704 15.6558 8.18767 15.4862 8.13182 15.3271C8.07596 15.168 7.98505 15.0235 7.86581 14.9042C7.74657 14.785 7.60205 14.6941 7.44294 14.6382C7.28383 14.5824 7.11419 14.563 6.94659 14.5815C6.77898 14.6001 6.61768 14.6561 6.47463 14.7454C6.33158 14.8347 6.21043 14.955 6.12015 15.0974C5.87265 15.3449 5.58015 15.4799 5.26515 15.5924C4.47765 15.8624 3.51015 15.7499 2.88015 15.0974C2.00265 14.2199 2.00265 12.7574 2.88015 11.8574L6.25515 8.48238C7.15515 7.58238 7.94265 7.46988 8.57265 7.49238C9.20265 7.51488 9.63015 7.69488 9.63015 7.69488C9.76197 7.79375 9.91391 7.86245 10.0752 7.89613C10.2365 7.92981 10.4032 7.92765 10.5636 7.88979C10.724 7.85193 10.8741 7.7793 11.0033 7.67704C11.1325 7.57478 11.2377 7.44538 11.3114 7.298C11.3851 7.15061 11.4255 6.98884 11.4298 6.82411C11.434 6.65939 11.4021 6.49573 11.3362 6.34472C11.2702 6.1937 11.1719 6.05902 11.0482 5.95018C10.9245 5.84135 10.7783 5.76102 10.6201 5.71488C10.6201 5.71488 9.85515 5.26488 8.73015 5.21988V5.26488Z" fill="#F1F1F1"/>
</g>
<defs>
<clipPath id="clip0_2546_6663">
<rect width="18" height="18" fill="white"/>
</clipPath>
</defs>
</svg>
