<svg width="18" height="18" viewBox="0 0 18 18" fill="none" xmlns="http://www.w3.org/2000/svg">
<path d="M6.75 13.5C6.3375 13.5 5.9845 13.3533 5.691 13.0597C5.3975 12.7662 5.2505 12.413 5.25 12V3C5.25 2.5875 5.397 2.2345 5.691 1.941C5.985 1.6475 6.338 1.5005 6.75 1.5H13.5C13.9125 1.5 14.2657 1.647 14.5597 1.941C14.8538 2.235 15.0005 2.588 15 3V12C15 12.4125 14.8533 12.7657 14.5597 13.0597C14.2662 13.3538 13.913 13.5005 13.5 13.5H6.75ZM6.75 12H13.5V3H6.75V12ZM3.75 16.5C3.3375 16.5 2.9845 16.3533 2.691 16.0597C2.3975 15.7662 2.2505 15.413 2.25 15V4.5H3.75V15H12V16.5H3.75Z" fill="#F1F1F1"/>
</svg>
