<svg width="22" height="22" viewBox="0 0 22 22" fill="none" xmlns="http://www.w3.org/2000/svg">
<path d="M8.25 16.4997C7.74583 16.4997 7.31439 16.3203 6.95567 15.9616C6.59694 15.6029 6.41728 15.1711 6.41667 14.6663V3.66634C6.41667 3.16217 6.59633 2.73073 6.95567 2.37201C7.315 2.01329 7.74644 1.83362 8.25 1.83301H16.5C17.0042 1.83301 17.4359 2.01267 17.7953 2.37201C18.1546 2.73134 18.3339 3.16279 18.3333 3.66634V14.6663C18.3333 15.1705 18.154 15.6023 17.7953 15.9616C17.4365 16.3209 17.0048 16.5003 16.5 16.4997H8.25ZM8.25 14.6663H16.5V3.66634H8.25V14.6663ZM4.58333 20.1663C4.07917 20.1663 3.64772 19.987 3.289 19.6283C2.93028 19.2695 2.75061 18.8378 2.75 18.333V5.49967H4.58333V18.333H14.6667V20.1663H4.58333Z" fill="#F1F1F1"/>
</svg>
