<svg width="22" height="22" viewBox="0 0 22 22" fill="none" xmlns="http://www.w3.org/2000/svg">
<g clip-path="url(#clip0_2546_6429)">
<path d="M16.1699 0.0820312C15.6752 0.0985633 15.1849 0.181815 14.7124 0.329531C13.9699 0.604531 13.2549 1.01703 12.6499 1.62203C12.4758 1.73238 12.3288 1.88045 12.2197 2.05529C12.1105 2.23013 12.0421 2.42727 12.0194 2.63212C11.9968 2.83698 12.0204 3.04431 12.0887 3.23878C12.157 3.43325 12.2681 3.60988 12.4138 3.75562C12.5596 3.90136 12.7362 4.01247 12.9307 4.08074C13.1251 4.149 13.3325 4.17268 13.5373 4.15001C13.7422 4.12734 13.9393 4.05891 14.1141 3.94978C14.289 3.84065 14.4371 3.69361 14.5474 3.51953C14.8499 3.21703 15.2074 3.05203 15.5924 2.91453C16.5549 2.58453 17.7374 2.72203 18.5074 3.51953C19.5799 4.59203 19.5799 6.37953 18.5074 7.47953L14.3824 11.6045C13.1724 12.8145 12.1824 12.9245 11.4674 12.897C10.7524 12.8695 10.3399 12.5395 10.3399 12.5395C10.181 12.4492 10.0059 12.3911 9.82453 12.3685C9.64318 12.3459 9.45914 12.3593 9.28295 12.4078C9.10675 12.4563 8.94183 12.5391 8.79761 12.6513C8.65339 12.7636 8.53269 12.9031 8.44241 13.062C8.35213 13.2209 8.29402 13.3961 8.27142 13.5774C8.24882 13.7588 8.26216 13.9428 8.31067 14.119C8.35919 14.2952 8.44194 14.4601 8.55419 14.6043C8.66645 14.7485 8.80601 14.8692 8.96491 14.9595C8.96491 14.9595 9.89991 15.5645 11.2749 15.647C12.6499 15.7295 14.5749 15.207 16.2524 13.502L20.3774 9.37703C21.0725 8.68774 21.569 7.82379 21.8145 6.87613C22.06 5.92846 22.0455 4.93214 21.7724 3.99204C21.4994 3.05194 20.978 2.20283 20.2631 1.5341C19.5481 0.865363 18.6661 0.40174 17.7099 0.192031C17.2149 0.0820312 16.6649 0.0820312 16.1699 0.109531V0.0820312ZM10.6699 6.43453C9.29491 6.37953 7.39741 6.84703 5.77491 8.49703L1.64991 12.622C1.14022 13.1281 0.735705 13.7301 0.459662 14.3932C0.183619 15.0563 0.0415039 15.7675 0.0415039 16.4858C0.0415039 17.2041 0.183619 17.9152 0.459662 18.5784C0.735705 19.2415 1.14022 19.8434 1.64991 20.3495C3.18991 21.8895 5.38991 22.3295 7.31491 21.642C8.05741 21.367 8.77241 20.9545 9.37741 20.3495C9.55148 20.2392 9.69852 20.0911 9.80766 19.9163C9.91679 19.7414 9.98522 19.5443 10.0079 19.3394C10.0306 19.1346 10.0069 18.9273 9.93861 18.7328C9.87035 18.5383 9.75924 18.3617 9.6135 18.2159C9.46776 18.0702 9.29113 17.9591 9.09666 17.8908C8.90219 17.8226 8.69486 17.7989 8.49 17.8216C8.28515 17.8442 8.08801 17.9126 7.91317 18.0218C7.73833 18.1309 7.59026 18.278 7.47991 18.452C7.17741 18.7545 6.81991 18.9195 6.43491 19.057C5.47241 19.387 4.28991 19.2495 3.51991 18.452C2.44741 17.3795 2.44741 15.592 3.51991 14.492L7.64491 10.367C8.74491 9.26703 9.70741 9.12953 10.4774 9.15703C11.2474 9.18453 11.7699 9.40453 11.7699 9.40453C11.931 9.52537 12.1167 9.60934 12.3139 9.6505C12.511 9.69167 12.7148 9.68902 12.9108 9.64275C13.1068 9.59648 13.2903 9.50771 13.4482 9.38272C13.6061 9.25774 13.7347 9.09959 13.8247 8.91945C13.9148 8.73931 13.9642 8.54159 13.9694 8.34026C13.9747 8.13892 13.9356 7.9389 13.855 7.75433C13.7744 7.56976 13.6543 7.40514 13.5031 7.27212C13.3518 7.1391 13.1733 7.04092 12.9799 6.98453C12.9799 6.98453 12.0449 6.43453 10.6699 6.37953V6.43453Z" fill="#F1F1F1"/>
</g>
<defs>
<clipPath id="clip0_2546_6429">
<rect width="22" height="22" fill="white"/>
</clipPath>
</defs>
</svg>
