<svg width="22" height="22" viewBox="0 0 22 22" fill="none" xmlns="http://www.w3.org/2000/svg">
<g clip-path="url(#clip0_2546_6450)">
<mask id="mask0_2546_6450" style="mask-type:luminance" maskUnits="userSpaceOnUse" x="0" y="0" width="22" height="22">
<path d="M22 0H0V22H22V0Z" fill="white"/>
</mask>
<g mask="url(#mask0_2546_6450)">
<path d="M11.0001 19.4779C10.8259 19.4779 10.6518 19.4137 10.5143 19.2762L4.95011 13.7121C4.68427 13.4462 4.68427 13.0062 4.95011 12.7404C5.21594 12.4746 5.65594 12.4746 5.92177 12.7404L11.0001 17.8187L16.0784 12.7404C16.3443 12.4746 16.7843 12.4746 17.0501 12.7404C17.3159 13.0062 17.3159 13.4462 17.0501 13.7121L11.4859 19.2762C11.3484 19.4137 11.1743 19.4779 11.0001 19.4779Z" fill="#F1F1F1"/>
<path d="M11 19.323C10.6242 19.323 10.3125 19.0113 10.3125 18.6355V3.20801C10.3125 2.83217 10.6242 2.52051 11 2.52051C11.3758 2.52051 11.6875 2.83217 11.6875 3.20801V18.6355C11.6875 19.0113 11.3758 19.323 11 19.323Z" fill="#F1F1F1"/>
</g>
</g>
<defs>
<clipPath id="clip0_2546_6450">
<rect width="22" height="22" fill="white"/>
</clipPath>
</defs>
</svg>
