<svg width="24" height="24" viewBox="0 0 24 24" fill="none" xmlns="http://www.w3.org/2000/svg">
<path d="M17.64 0.0898438C17.1003 0.107879 16.5654 0.198699 16.05 0.359844C15.24 0.659844 14.46 1.10984 13.8 1.76984C13.6101 1.89022 13.4497 2.05176 13.3306 2.24249C13.2116 2.43323 13.1369 2.64829 13.1122 2.87176C13.0875 3.09524 13.1133 3.32142 13.1878 3.53357C13.2623 3.74572 13.3835 3.93841 13.5424 4.0974C13.7014 4.25638 13.8941 4.3776 14.1063 4.45207C14.3184 4.52654 14.5446 4.55237 14.7681 4.52764C14.9916 4.50291 15.2066 4.42826 15.3974 4.30921C15.5881 4.19015 15.7496 4.02974 15.87 3.83984C16.2 3.50984 16.59 3.32984 17.01 3.17984C18.06 2.81984 19.35 2.96984 20.19 3.83984C21.36 5.00984 21.36 6.95984 20.19 8.15984L15.69 12.6598C14.37 13.9798 13.29 14.0998 12.51 14.0698C11.73 14.0398 11.28 13.6798 11.28 13.6798C11.1067 13.5814 10.9156 13.518 10.7178 13.4933C10.5199 13.4687 10.3192 13.4832 10.127 13.5361C9.93474 13.5891 9.75483 13.6793 9.5975 13.8018C9.44016 13.9242 9.30849 14.0765 9.21 14.2498C9.11151 14.4232 9.04813 14.6142 9.02347 14.8121C8.99881 15.0099 9.01336 15.2107 9.06629 15.4029C9.11922 15.5951 9.20949 15.775 9.33195 15.9324C9.45441 16.0897 9.60666 16.2213 9.78 16.3198C9.78 16.3198 10.8 16.9798 12.3 17.0698C13.8 17.1598 15.9 16.5898 17.73 14.7298L22.23 10.2298C22.9883 9.47789 23.5299 8.5354 23.7977 7.50158C24.0655 6.46777 24.0497 5.38088 23.7519 4.35531C23.454 3.32974 22.8852 2.40344 22.1053 1.67392C21.3253 0.944387 20.3632 0.438617 19.32 0.209844C18.78 0.0898438 18.18 0.0898438 17.64 0.119844V0.0898438ZM11.64 7.01984C10.14 6.95984 8.07 7.46984 6.3 9.26984L1.8 13.7698C1.24398 14.322 0.80269 14.9786 0.501552 15.702C0.200414 16.4254 0.0453796 17.2013 0.0453796 17.9848C0.0453796 18.7684 0.200414 19.5443 0.501552 20.2677C0.80269 20.9911 1.24398 21.6477 1.8 22.1998C3.48 23.8798 5.88 24.3598 7.98 23.6098C8.79 23.3098 9.57 22.8598 10.23 22.1998C10.4199 22.0795 10.5803 21.9179 10.6994 21.7272C10.8184 21.5365 10.8931 21.3214 10.9178 21.0979C10.9425 20.8744 10.9167 20.6483 10.8422 20.4361C10.7678 20.224 10.6465 20.0313 10.4876 19.8723C10.3286 19.7133 10.1359 19.5921 9.92373 19.5176C9.71158 19.4431 9.4854 19.4173 9.26192 19.442C9.03845 19.4668 8.82339 19.5414 8.63265 19.6605C8.44192 19.7795 8.28038 19.9399 8.16 20.1298C7.83 20.4598 7.44 20.6398 7.02 20.7898C5.97 21.1498 4.68 20.9998 3.84 20.1298C2.67 18.9598 2.67 17.0098 3.84 15.8098L8.34 11.3098C9.54 10.1098 10.59 9.95984 11.43 9.98984C12.27 10.0198 12.84 10.2598 12.84 10.2598C13.0158 10.3917 13.2184 10.4833 13.4334 10.5282C13.6485 10.5731 13.8708 10.5702 14.0846 10.5197C14.2985 10.4692 14.4986 10.3724 14.6709 10.2361C14.8432 10.0997 14.9834 9.92718 15.0816 9.73066C15.1799 9.53415 15.2338 9.31845 15.2395 9.09882C15.2452 8.87918 15.2026 8.66097 15.1147 8.45962C15.0268 8.25827 14.8957 8.07869 14.7307 7.93358C14.5658 7.78846 14.3709 7.68136 14.16 7.61984C14.16 7.61984 13.14 7.01984 11.64 6.95984V7.01984Z" fill="#F1F1F1"/>
</svg>
