<svg width="24" height="24" viewBox="0 0 24 24" fill="none" xmlns="http://www.w3.org/2000/svg">
<g clip-path="url(#clip0_2538_1156)">
<mask id="mask0_2538_1156" style="mask-type:luminance" maskUnits="userSpaceOnUse" x="0" y="0" width="24" height="24">
<path d="M24 0H0V24H24V0Z" fill="white"/>
</mask>
<g mask="url(#mask0_2538_1156)">
<path d="M12.0001 21.2491C11.8101 21.2491 11.6201 21.1791 11.4701 21.0291L5.40012 14.9591C5.11012 14.6691 5.11012 14.1891 5.40012 13.8991C5.69012 13.6091 6.17012 13.6091 6.46012 13.8991L12.0001 19.4391L17.5401 13.8991C17.8301 13.6091 18.3101 13.6091 18.6001 13.8991C18.8901 14.1891 18.8901 14.6691 18.6001 14.9591L12.5301 21.0291C12.3801 21.1791 12.1901 21.2491 12.0001 21.2491Z" fill="#F1F1F1"/>
<path d="M12 21.08C11.59 21.08 11.25 20.74 11.25 20.33V3.5C11.25 3.09 11.59 2.75 12 2.75C12.41 2.75 12.75 3.09 12.75 3.5V20.33C12.75 20.74 12.41 21.08 12 21.08Z" fill="#F1F1F1"/>
</g>
</g>
<defs>
<clipPath id="clip0_2538_1156">
<rect width="24" height="24" fill="white"/>
</clipPath>
</defs>
</svg>
