<svg width="26" height="26" viewBox="0 0 26 26" fill="none" xmlns="http://www.w3.org/2000/svg">
<g clip-path="url(#clip0_2545_6195)">
<path d="M19.1099 0.0976562C18.5252 0.117194 17.9458 0.215583 17.3874 0.390156C16.5099 0.715156 15.6649 1.20266 14.9499 1.91766C14.7442 2.04807 14.5704 2.22306 14.4414 2.42969C14.3125 2.63632 14.2316 2.8693 14.2048 3.1114C14.178 3.3535 14.206 3.59853 14.2867 3.82836C14.3673 4.05819 14.4987 4.26694 14.6709 4.43917C14.8431 4.61141 15.0519 4.74272 15.2817 4.8234C15.5115 4.90408 15.7566 4.93206 15.9987 4.90527C16.2408 4.87848 16.4737 4.79761 16.6804 4.66863C16.887 4.53966 17.062 4.36588 17.1924 4.16016C17.5499 3.80266 17.9724 3.60766 18.4274 3.44516C19.5649 3.05516 20.9624 3.21766 21.8724 4.16016C23.1399 5.42766 23.1399 7.54016 21.8724 8.84016L16.9974 13.7152C15.5674 15.1452 14.3974 15.2752 13.5524 15.2427C12.7074 15.2102 12.2199 14.8202 12.2199 14.8202C12.0321 14.7135 11.8252 14.6448 11.6108 14.6181C11.3965 14.5914 11.179 14.6071 10.9708 14.6645C10.7625 14.7218 10.5676 14.8196 10.3972 14.9523C10.2268 15.0849 10.0841 15.2499 9.97741 15.4377C9.87072 15.6254 9.80205 15.8324 9.77534 16.0467C9.74862 16.2611 9.76439 16.4786 9.82173 16.6868C9.87907 16.895 9.97686 17.0899 10.1095 17.2604C10.2422 17.4308 10.4071 17.5735 10.5949 17.6802C10.5949 17.6802 11.6999 18.3952 13.3249 18.4927C14.9499 18.5902 17.2249 17.9727 19.2074 15.9577L24.0824 11.0827C24.9039 10.268 25.4906 9.24701 25.7808 8.12704C26.0709 7.00708 26.0537 5.82961 25.7311 4.71858C25.4084 3.60755 24.7922 2.60406 23.9473 1.81373C23.1024 1.02341 22.06 0.475494 20.9299 0.227656C20.3449 0.0976562 19.6949 0.0976562 19.1099 0.130156V0.0976562ZM12.6099 7.60516C10.9849 7.54016 8.74241 8.09266 6.82491 10.0427L1.94991 14.9177C1.34756 15.5158 0.869492 16.2272 0.543259 17.0109C0.217026 17.7945 0.0490723 18.635 0.0490723 19.4839C0.0490723 20.3328 0.217026 21.1733 0.543259 21.957C0.869492 22.7406 1.34756 23.452 1.94991 24.0502C3.76991 25.8702 6.36991 26.3902 8.64491 25.5777C9.52241 25.2527 10.3674 24.7652 11.0824 24.0502C11.2881 23.9197 11.4619 23.7447 11.5909 23.5381C11.7199 23.3315 11.8007 23.0985 11.8275 22.8564C11.8543 22.6143 11.8263 22.3693 11.7457 22.1395C11.665 21.9096 11.5337 21.7009 11.3614 21.5286C11.1892 21.3564 10.9804 21.2251 10.7506 21.1444C10.5208 21.0637 10.2758 21.0358 10.0337 21.0625C9.79156 21.0893 9.55858 21.1702 9.35195 21.2992C9.14532 21.4282 8.97033 21.6019 8.83991 21.8077C8.48241 22.1652 8.05991 22.3602 7.60491 22.5227C6.46741 22.9127 5.06991 22.7502 4.15991 21.8077C2.89241 20.5402 2.89241 18.4277 4.15991 17.1277L9.03491 12.2527C10.3349 10.9527 11.4724 10.7902 12.3824 10.8227C13.2924 10.8552 13.9099 11.1152 13.9099 11.1152C14.1003 11.258 14.3198 11.3572 14.5528 11.4059C14.7858 11.4545 15.0266 11.4514 15.2583 11.3967C15.4899 11.342 15.7067 11.2371 15.8934 11.0894C16.08 10.9417 16.2319 10.7548 16.3384 10.5419C16.4448 10.329 16.5032 10.0953 16.5094 9.85738C16.5156 9.61944 16.4694 9.38305 16.3741 9.16492C16.2789 8.94678 16.1369 8.75224 15.9582 8.59503C15.7795 8.43783 15.5684 8.3218 15.3399 8.25516C15.3399 8.25516 14.2349 7.60516 12.6099 7.54016V7.60516Z" fill="#F1F1F1"/>
</g>
<defs>
<clipPath id="clip0_2545_6195">
<rect width="26" height="26" fill="white"/>
</clipPath>
</defs>
</svg>
