<svg width="26" height="26" viewBox="0 0 26 26" fill="none" xmlns="http://www.w3.org/2000/svg">
<path d="M9.75 19.5003C9.15417 19.5003 8.64428 19.2884 8.22033 18.8644C7.79639 18.4405 7.58406 17.9302 7.58333 17.3337V4.33366C7.58333 3.73783 7.79567 3.22794 8.22033 2.80399C8.645 2.38005 9.15489 2.16771 9.75 2.16699H19.5C20.0958 2.16699 20.6061 2.37933 21.0307 2.80399C21.4554 3.22866 21.6674 3.73855 21.6667 4.33366V17.3337C21.6667 17.9295 21.4547 18.4397 21.0307 18.8644C20.6068 19.2891 20.0966 19.501 19.5 19.5003H9.75ZM9.75 17.3337H19.5V4.33366H9.75V17.3337ZM5.41667 23.8337C4.82083 23.8337 4.31094 23.6217 3.887 23.1977C3.46306 22.7738 3.25072 22.2635 3.25 21.667V6.50033H5.41667V21.667H17.3333V23.8337H5.41667Z" fill="#F1F1F1"/>
</svg>
