<svg width="26" height="27" viewBox="0 0 26 27" fill="none" xmlns="http://www.w3.org/2000/svg">
<g clip-path="url(#clip0_2545_6216)">
<mask id="mask0_2545_6216" style="mask-type:luminance" maskUnits="userSpaceOnUse" x="0" y="0" width="26" height="27">
<path d="M26 0.5H0V26.5H26V0.5Z" fill="white"/>
</mask>
<g mask="url(#mask0_2545_6216)">
<path d="M13.0001 23.5204C12.7943 23.5204 12.5884 23.4446 12.4259 23.2821L5.85013 16.7062C5.53596 16.3921 5.53596 15.8721 5.85013 15.5579C6.16429 15.2437 6.68429 15.2437 6.99846 15.5579L13.0001 21.5596L19.0018 15.5579C19.3159 15.2437 19.8359 15.2437 20.1501 15.5579C20.4643 15.8721 20.4643 16.3921 20.1501 16.7062L13.5743 23.2821C13.4118 23.4446 13.2059 23.5204 13.0001 23.5204Z" fill="#F1F1F1"/>
<path d="M13 23.337C12.5558 23.337 12.1875 22.9687 12.1875 22.5245V4.29199C12.1875 3.84783 12.5558 3.47949 13 3.47949C13.4442 3.47949 13.8125 3.84783 13.8125 4.29199V22.5245C13.8125 22.9687 13.4442 23.337 13 23.337Z" fill="#F1F1F1"/>
</g>
</g>
<defs>
<clipPath id="clip0_2545_6216">
<rect width="26" height="26" fill="white" transform="translate(0 0.5)"/>
</clipPath>
</defs>
</svg>
