<svg width="30" height="30" viewBox="0 0 30 30" fill="none" xmlns="http://www.w3.org/2000/svg">
<path d="M11.25 22.5C10.5625 22.5 9.97417 22.2554 9.485 21.7663C8.99583 21.2771 8.75083 20.6883 8.75 20V5C8.75 4.3125 8.995 3.72417 9.485 3.235C9.975 2.74583 10.5633 2.50083 11.25 2.5H22.5C23.1875 2.5 23.7763 2.745 24.2663 3.235C24.7563 3.725 25.0008 4.31333 25 5V20C25 20.6875 24.7554 21.2763 24.2663 21.7663C23.7771 22.2563 23.1883 22.5008 22.5 22.5H11.25ZM11.25 20H22.5V5H11.25V20ZM6.25 27.5C5.5625 27.5 4.97417 27.2554 4.485 26.7663C3.99583 26.2771 3.75083 25.6883 3.75 25V7.5H6.25V25H20V27.5H6.25Z" fill="#F1F1F1"/>
</svg>
