<svg width="30" height="31" viewBox="0 0 30 31" fill="none" xmlns="http://www.w3.org/2000/svg">
<g clip-path="url(#clip0_2546_6333)">
<mask id="mask0_2546_6333" style="mask-type:luminance" maskUnits="userSpaceOnUse" x="0" y="0" width="30" height="31">
<path d="M30 0.5H0V30.5H30V0.5Z" fill="white"/>
</mask>
<g mask="url(#mask0_2546_6333)">
<path d="M15.0004 27.0609C14.7629 27.0609 14.5254 26.9734 14.3379 26.7859L6.75039 19.1984C6.38789 18.8359 6.38789 18.2359 6.75039 17.8734C7.11289 17.5109 7.71289 17.5109 8.07539 17.8734L15.0004 24.7984L21.9254 17.8734C22.2879 17.5109 22.8879 17.5109 23.2504 17.8734C23.6129 18.2359 23.6129 18.8359 23.2504 19.1984L15.6629 26.7859C15.4754 26.9734 15.2379 27.0609 15.0004 27.0609Z" fill="#F1F1F1"/>
<path d="M15 26.85C14.4875 26.85 14.0625 26.425 14.0625 25.9125V4.875C14.0625 4.3625 14.4875 3.9375 15 3.9375C15.5125 3.9375 15.9375 4.3625 15.9375 4.875V25.9125C15.9375 26.425 15.5125 26.85 15 26.85Z" fill="#F1F1F1"/>
</g>
</g>
<defs>
<clipPath id="clip0_2546_6333">
<rect width="30" height="30" fill="white" transform="translate(0 0.5)"/>
</clipPath>
</defs>
</svg>
