<svg width="30" height="30" viewBox="0 0 30 30" fill="none" xmlns="http://www.w3.org/2000/svg">
<g clip-path="url(#clip0_2546_6312)">
<path d="M22.0499 0.112305C21.3753 0.134848 20.7067 0.248374 20.0624 0.449805C19.0499 0.824805 18.0749 1.3873 17.2499 2.2123C17.0125 2.36278 16.812 2.56469 16.6632 2.80311C16.5144 3.04153 16.4211 3.31036 16.3902 3.5897C16.3593 3.86905 16.3916 4.15177 16.4846 4.41696C16.5777 4.68215 16.7292 4.92301 16.928 5.12175C17.1267 5.32048 17.3676 5.472 17.6328 5.56508C17.898 5.65817 18.1807 5.69046 18.46 5.65955C18.7394 5.62864 19.0082 5.53532 19.2466 5.38651C19.485 5.23769 19.6869 5.03718 19.8374 4.7998C20.2499 4.3873 20.7374 4.1623 21.2624 3.9748C22.5749 3.5248 24.1874 3.7123 25.2374 4.7998C26.6999 6.2623 26.6999 8.6998 25.2374 10.1998L19.6124 15.8248C17.9624 17.4748 16.6124 17.6248 15.6374 17.5873C14.6624 17.5498 14.0999 17.0998 14.0999 17.0998C13.8832 16.9767 13.6444 16.8975 13.3971 16.8666C13.1498 16.8358 12.8989 16.854 12.6586 16.9202C12.4183 16.9863 12.1934 17.0992 11.9968 17.2522C11.8001 17.4053 11.6355 17.5956 11.5124 17.8123C11.3893 18.029 11.3101 18.2678 11.2793 18.5151C11.2484 18.7624 11.2666 19.0133 11.3328 19.2536C11.3989 19.4939 11.5118 19.7188 11.6649 19.9154C11.8179 20.1121 12.0082 20.2767 12.2249 20.3998C12.2249 20.3998 13.4999 21.2248 15.3749 21.3373C17.2499 21.4498 19.8749 20.7373 22.1624 18.4123L27.7874 12.7873C28.7353 11.8474 29.4123 10.6692 29.7471 9.37698C30.0818 8.08471 30.062 6.72609 29.6897 5.44414C29.3174 4.16218 28.6064 3.0043 27.6315 2.09239C26.6566 1.18048 25.4539 0.548271 24.1499 0.262305C23.4749 0.112305 22.7249 0.112305 22.0499 0.149805V0.112305ZM14.5499 8.7748C12.6749 8.6998 10.0874 9.3373 7.87492 11.5873L2.24992 17.2123C1.55489 17.9024 1.00328 18.7233 0.626856 19.6275C0.250433 20.5318 0.0566406 21.5016 0.0566406 22.4811C0.0566406 23.4605 0.250433 24.4303 0.626856 25.3346C1.00328 26.2388 1.55489 27.0597 2.24992 27.7498C4.34992 29.8498 7.34992 30.4498 9.97492 29.5123C10.9874 29.1373 11.9624 28.5748 12.7874 27.7498C13.0248 27.5993 13.2253 27.3974 13.3741 27.159C13.5229 26.9206 13.6163 26.6517 13.6472 26.3724C13.6781 26.0931 13.6458 25.8103 13.5527 25.5451C13.4596 25.28 13.3081 25.0391 13.1094 24.8404C12.9106 24.6416 12.6698 24.4901 12.4046 24.397C12.1394 24.3039 11.8567 24.2716 11.5773 24.3026C11.298 24.3335 11.0291 24.4268 10.7907 24.5756C10.5523 24.7244 10.3504 24.9249 10.1999 25.1623C9.78742 25.5748 9.29992 25.7998 8.77492 25.9873C7.46242 26.4373 5.84992 26.2498 4.79992 25.1623C3.33742 23.6998 3.33742 21.2623 4.79992 19.7623L10.4249 14.1373C11.9249 12.6373 13.2374 12.4498 14.2874 12.4873C15.3374 12.5248 16.0499 12.8248 16.0499 12.8248C16.2696 12.9896 16.5229 13.1041 16.7917 13.1602C17.0605 13.2164 17.3384 13.2127 17.6057 13.1496C17.873 13.0865 18.1232 12.9655 18.3385 12.7951C18.5539 12.6246 18.7292 12.409 18.852 12.1633C18.9748 11.9177 19.0422 11.6481 19.0493 11.3735C19.0564 11.099 19.0032 10.8262 18.8933 10.5745C18.7834 10.3228 18.6195 10.0984 18.4133 9.91697C18.2071 9.73558 17.9636 9.6017 17.6999 9.5248C17.6999 9.5248 16.4249 8.7748 14.5499 8.6998V8.7748Z" fill="#F1F1F1"/>
</g>
<defs>
<clipPath id="clip0_2546_6312">
<rect width="30" height="30" fill="white"/>
</clipPath>
</defs>
</svg>
